# AST/ASF file generated using VICON BodyLanguage
# -----------------------------------------------
:version 1.10
:name VICON
:units
  mass 1.0
  length 0.45
  angle deg
:documentation
   .ast/.asf automatically generated from VICON data using
   VICON BodyBuilder and BodyLanguage model FoxedUp or BRILLIANT.MOD
:root
   order TX TY TZ RX RY RZ
   axis XYZ
   position 0 0 0  
   orientation 0 0 0 
:bonedata
  begin
     id 1 
     name lhipjoint
     direction 0.589753 -0.68606 0.426044 
     length 2.54082 
     axis 0 0 0  XYZ
  end
  begin
     id 2 
     name lfemur
     direction 0.34202 -0.939693 0  
     length 7.04539  
     axis 0 0 20  XYZ
    dof rx ry rz
    limits (-160.0 20.0)
           (-70.0 70.0)
           (-60.0 70.0)
  end
  begin
     id 3 
     name ltibia
     direction 0.34202 -0.939693 0   
     length 7.83772   
     axis 0 0 20   XYZ
    dof rx
    limits (-10.0 170.0)
  end
  begin
     id 4 
     name lfoot
     direction 0.0596604 -0.163915 0.984669   
     length 2.39542   
     axis -90 7.62852e-016 20   XYZ
    dof rx rz
    limits (-45.0 90.0)
           (-70.0 20.0)
  end
  begin
     id 5 
     name ltoes
     direction 1.53514e-011 -4.21954e-011 1   
     length 1.2047   
     axis -90 7.62852e-016 20   XYZ
    dof rx
    limits (-90.0 20.0)
  end
  begin
     id 6 
     name rhipjoint
     direction -0.580585 -0.69168 0.429534   
     length 2.52018  
     axis 0 0 0  XYZ 
  end
  begin
     id 7 
     name rfemur
     direction -0.34202 -0.939693 0   
     length 7.0101   
     axis 0 0 -20   XYZ
    dof rx ry rz
    limits (-160.0 20.0)
           (-70.0 70.0)
           (-70.0 60.0)
  end
  begin
     id 8 
     name rtibia
     direction -0.34202 -0.939693 0   
     length 7.70628   
     axis 0 0 -20   XYZ
    dof rx
    limits (-10.0 170.0)
 end
 begin
     id 9 
     name rfoot
     direction -0.0696237 -0.19129 0.979061   
     length 2.52466  
     axis -90 -7.62852e-016 -20   XYZ
    dof rx rz
    limits (-45.0 90.0)
           (-20.0 70.0)
  end
  begin
     id 10 
     name rtoes
     direction -1.53519e-011 -4.21793e-011 1   
     length 1.266   
     axis -90 -7.62852e-016 -20   XYZ
    dof rx
    limits (-90.0 20.0)
  end
  begin
     id 11 
     name lowerback
     direction 0.00381965 0.995707 -0.0924856   
     length 2.20825   
     axis 0 0 0   XYZ
    dof rx ry rz
    limits (-20.0 45.0)
           (-30.0 30.0)
           (-30.0 30.0)
  end
  begin
     id 12 
     name upperback
     direction -0.0139043 0.999634 -0.0231929   
     length 2.21517   
     axis 0 0 0   XYZ
    dof rx ry rz
    limits (-20.0 45.0)
           (-30.0 30.0)
           (-30.0 30.0)
  end
  begin
     id 13 
     name thorax
     direction -0.0143933 0.999691 0.0202892   
     length 2.22911   
     axis 0 0 0   XYZ
    dof rx ry rz
    limits (-20.0 45.0)
           (-30.0 30.0)
           (-30.0 30.0)
  end
  begin
     id 14 
     name lowerneck
     direction -0.0251153 0.981819 0.188153   
     length 1.61782   
     axis 0 0 0   XYZ
    dof rx ry rz
    limits (-20.0 45.0)
           (-30.0 30.0)
           (-30.0 30.0)
  end
  begin
     id 15 
     name upperneck
     direction 0.0563891 0.969357 -0.239095   
     length 1.64526   
     axis 0 0 0   XYZ
    dof rx ry rz
    limits (-20.0 45.0)
           (-30.0 30.0)
           (-30.0 30.0)
  end
  begin
     id 16
     name head
     direction 0.0208328 0.99459 -0.101773  
     length 1.67436  
     axis 0 0 0   XYZ
    dof rx ry rz
    limits (-20.0 45.0)
           (-30.0 30.0)
           (-30.0 30.0)
  end
  begin
     id 17 
     name lclavicle
     direction 0.917689 0.397224 0.00772059  
     length 3.31102  
     axis 0 0 0   XYZ
    dof ry rz
    limits (-20.0 10.0)
           (0.0 20.0)
  end
  begin
     id 18 
     name lhumerus
     direction 1 -4.4896e-011 2.32308e-027   
     length 5.25537   
     axis 180 -30 -90   XYZ
    dof rx ry rz
    limits (-60.0 90.0)
           (-90.0 90.0)
           (-90.0 90.0)
  end
  begin
     id 19
     name lradius
     direction 1 -4.49005e-011 -2.04271e-027   
     length 3.38855   
     axis 180 -30 -90   XYZ
    dof rx
    limits (-10.0 170.0)
  end
  begin
     id 20
     name lwrist
     direction 1 -4.48892e-011 2.56952e-028   
     length 1.69428   
     axis -5.12785e-016 90 90   XYZ
    dof ry
    limits (-180.0 0.0)
 end
  begin
     id 21 
     name lhand
     direction 1 -4.48966e-011 5.13905e-028   
     length 0.614516   
     axis -3.27915e-016 90 90   XYZ
    dof rx rz
    limits (-90.0 90.0)
           (-45.0 45.0)
  end
  begin
     id 22 
     name lfingers
     direction 1 -4.48979e-011 1.02781e-027   
     length 0.495439   
     axis -6.5583e-016 90 90   XYZ
    dof rx
    limits (0.0 90.0)
  end
  begin
     id 23
     name lthumb
     direction 0.707107 -6.35001e-011 0.707107   
     length 0.711354   
     axis -90 45 2.85299e-015   XYZ
    dof rx rz
    limits (-45.0 45.0)
           (-45.0 45.0)
  end
  begin
     id 24 
     name rclavicle
     direction -0.938556 0.342765 -0.0403177   
     length 3.27019  
     axis 0 0 0   XYZ 
    dof ry rz
    limits (-10.0 20.0)
           (-20.0 0.0)
  end
  begin
     id 25 
     name rhumerus
     direction -1 -4.48966e-011 2.52291e-027  
     length 5.38183   
     axis 180 30 90   XYZ
    dof rx ry rz
    limits (-90.0 60.0)
           (-90.0 90.0)
           (-90.0 90.0)
  end
  begin
     id 26 
     name rradius
     direction -1 -4.4896e-011 1.5797e-027   
     length 3.16988   
     axis 180 30 90   XYZ
    dof rx
    limits (-10.0 170.0)
  end
  begin
     id 27 
     name rwrist
     direction -1 -4.48947e-011 2.56952e-028   
     length 1.58494   
     axis -5.12785e-016 -90 -90   XYZ
    dof ry
    limits (-180.0 0.0)
  end
  begin
     id 28
     name rhand
     direction -1 -4.49098e-011 5.13905e-028   
     length 0.637679   
     axis -3.27915e-016 -90 -90   XYZ
    dof rx rz
    limits (-90.0 90.0)
           (-45.0 45.0)
  end
  begin
     id 29
     name rfingers
     direction -1 -4.49026e-011 1.02781e-027   
     length 0.514113   
     axis -6.5583e-016 -90 -90   XYZ
    dof rx
    limits (0.0 90.0)
  end
  begin
     id 30
     name rthumb
     direction -0.707107 -6.3491e-011 0.707107   
     length 0.738167   
     axis -90 -45 -2.85299e-015   XYZ
    dof rx rz
    limits (-45.0 45.0)
           (-45.0 45.0)
  end
:hierarchy
  begin
    root lhipjoint rhipjoint lowerback
    lhipjoint lfemur
    lfemur ltibia
    ltibia lfoot
    lfoot ltoes
    rhipjoint rfemur
    rfemur rtibia
    rtibia rfoot
    rfoot rtoes
    lowerback upperback
    upperback thorax
    thorax lowerneck lclavicle rclavicle
    lowerneck upperneck
    upperneck head
    lclavicle lhumerus
    lhumerus lradius
    lradius lwrist
    lwrist lhand lthumb
    lhand lfingers
    rclavicle rhumerus
    rhumerus rradius
    rradius rwrist
    rwrist rhand rthumb
    rhand rfingers
  end

#!OML:ASF H:\Swim\Project 1\Capture day 1\Session 1\swimmer.ASF
:FULLY-SPECIFIED
:DEGREES
1103
root 4.51635 12.3251 8.47664 71.9777 -5.05059 -0.593375
lowerback 16.7906 0.0232861 -2.13888
upperback -4.40268 -0.876729 -3.06695
thorax -14.4959 -0.399573 -1.99008
lowerneck -33.621 -5.84686 -6.98771
upperneck 14.9485 -7.58924 11.7009
head 11.001 -2.34612 4.05965
rclavicle -5.56597e-015 1.11319e-014
rhumerus 35.3293 24.3175 -50.921
rradius 107.676
rwrist -25.7932
rhand -33.7806 5.73201
rfingers 7.12502
rthumb -6.96782 -24.1333
lclavicle -5.56597e-015 1.11319e-014
lhumerus 31.6389 -19.2864 47.6821
lradius 110.368
lwrist 7.65426
lhand -33.663 12.2204
lfingers 7.12502
lthumb -6.85426 42.0895
rfemur -15.0959 -3.09144 4.7512
rtibia 87.5443
rfoot 4.52343 -5.32215
rtoes -11.817
lfemur -14.764 8.77568 -11.133
ltibia 80.9307
lfoot 10.7621 6.00941
ltoes 0.52051
1104
root 4.51392 12.3281 8.48513 72.0172 -5.00581 -0.598394
lowerback 16.7715 0.00811414 -2.11481
upperback -4.4098 -0.89226 -3.07394
thorax -14.4935 -0.409317 -2.00716
lowerneck -33.6363 -5.85123 -6.97978
upperneck 14.9583 -7.59696 11.6924
head 11.0071 -2.34951 4.05383
rclavicle 3.57812e-015 1.92821e-014
rhumerus 35.2985 24.4048 -51.1714
rradius 107.841
rwrist -26.1425
rhand -33.8483 5.55216
rfingers 7.12502
rthumb -7.03317 -24.311
lclavicle 3.57812e-015 1.92821e-014
lhumerus 31.624 -19.4117 47.8689
lradius 110.462
lwrist 7.97911
lhand -33.6472 12.5339
lfingers 7.12502
lthumb -6.83897 42.4035
rfemur -15.1677 -3.27544 4.51885
rtibia 88.1208
rfoot 4.62041 -5.21567
rtoes -11.6086
lfemur -14.8275 8.9059 -11.0369
ltibia 81.4502
lfoot 10.8165 6.01459
ltoes 0.278018
1105
root 4.51139 12.3311 8.49342 72.0587 -4.95955 -0.603897
lowerback 16.7488 -0.00670731 -2.089
upperback -4.41712 -0.906778 -3.0809
thorax -14.4891 -0.41875 -2.02545
lowerneck -33.6633 -5.85872 -6.96808
upperneck 14.9799 -7.61155 11.685
head 11.0201 -2.35496 4.04672
rclavicle 2.78299e-015 3.57812e-014
rhumerus 35.2583 24.5122 -51.4327
rradius 108.01
rwrist -26.4704
rhand -33.9389 5.38289
rfingers 7.12502
rthumb -7.12056 -24.4773
lclavicle 2.78299e-015 3.57812e-014
lhumerus 31.6142 -19.5764 48.0218
lradius 110.534
lwrist 8.22642
lhand -33.648 12.8719
lfingers 7.12502
lthumb -6.83975 42.7414
rfemur -15.2398 -3.44724 4.29409
rtibia 88.6853
rfoot 4.7197 -5.11409
rtoes -11.3687
lfemur -14.893 9.0434 -10.9366
ltibia 81.9614
lfoot 10.8717 6.01358
ltoes 0.0542123
1106
root 4.50873 12.3339 8.50184 72.1028 -4.9181 -0.608084
lowerback 16.7209 -0.0209365 -2.06806
upperback -4.42429 -0.921706 -3.09023
thorax -14.4814 -0.428082 -2.04347
lowerneck -33.6928 -5.86888 -6.95765
upperneck 15.0015 -7.63164 11.6876
head 11.0348 -2.36158 4.04253
rclavicle 4.37326e-015 2.18663e-015
rhumerus 35.2094 24.6482 -51.7006
rradius 108.177
rwrist -26.7692
rhand -34.0722 5.2464
rfingers 7.12502
rthumb -7.24928 -24.6094
lclavicle 4.37326e-015 2.18663e-015
lhumerus 31.6098 -19.8247 48.1098
lradius 110.597
lwrist 8.50324
lhand -33.755 13.1764
lfingers 7.12502
lthumb -6.94309 43.0425
rfemur -15.3101 -3.58717 4.08109
rtibia 89.2357
rfoot 4.81542 -5.03537
rtoes -11.0795
lfemur -14.9595 9.18226 -10.842
ltibia 82.4616
lfoot 10.9209 6.01448
ltoes -0.062603
1107
root 4.506 12.3366 8.51043 72.1503 -4.87923 -0.611398
lowerback 16.688 -0.0345954 -2.05091
upperback -4.43221 -0.936572 -3.09978
thorax -14.4714 -0.437062 -2.05959
lowerneck -33.7226 -5.87965 -6.94819
upperneck 15.0218 -7.65286 11.6936
head 11.0495 -2.36834 4.03954
rclavicle 4.37326e-015 -3.57812e-015
rhumerus 35.1567 24.81 -51.9657
rradius 108.339
rwrist -27.0399
rhand -34.2449 5.15389
rfingers 7.12502
rthumb -7.41595 -24.6961
lclavicle 4.37326e-015 -3.57812e-015
lhumerus 31.6053 -20.1303 48.1588
lradius 110.692
lwrist 8.98943
lhand -33.9053 13.4123
lfingers 7.12502
lthumb -7.08817 43.2736
rfemur -15.3792 -3.70114 3.88039
rtibia 89.7708
rfoot 4.89454 -4.99112
rtoes -10.8801
lfemur -15.0281 9.32288 -10.7502
ltibia 82.9494
lfoot 10.9669 6.01541
ltoes -0.0588827
1108
root 4.50325 12.339 8.51908 72.202 -4.84238 -0.61421
lowerback 16.6498 -0.0476777 -2.03659
upperback -4.44135 -0.951095 -3.10902
thorax -14.4597 -0.445615 -2.07381
lowerneck -33.7519 -5.88963 -6.94172
upperneck 15.0418 -7.67228 11.7023
head 11.0641 -2.37412 4.03843
rclavicle -1.59028e-015 -1.53064e-014
rhumerus 35.1054 24.9981 -52.2164
rradius 108.489
rwrist -27.2928
rhand -34.466 5.12911
rfingers 7.12502
rthumb -7.62942 -24.7133
lclavicle -1.59028e-015 -1.53064e-014
lhumerus 31.5951 -20.497 48.1783
lradius 110.823
lwrist 9.67847
lhand -34.1377 13.5549
lfingers 7.12502
lthumb -7.31249 43.4085
rfemur -15.4483 -3.79398 3.68974
rtibia 90.2896
rfoot 4.95745 -4.97733
rtoes -10.8194
lfemur -15.0982 9.46323 -10.6618
ltibia 83.4234
lfoot 11.0115 6.0158
ltoes 0.0912286
1109
root 4.50047 12.3413 8.52801 72.2562 -4.80773 -0.616329
lowerback 16.6096 -0.0597098 -2.02565
upperback -4.45156 -0.96482 -3.11751
thorax -14.4479 -0.453457 -2.08553
lowerneck -33.785 -5.8989 -6.93684
upperneck 15.0643 -7.68936 11.7084
head 11.0799 -2.3791 4.03711
rclavicle 7.95139e-016 1.2921e-014
rhumerus 35.0615 25.2004 -52.4484
rradius 108.636
rwrist -27.5731
rhand -34.7114 5.14688
rfingers 7.12502
rthumb -7.86622 -24.6868
lclavicle 7.95139e-016 1.2921e-014
lhumerus 31.5854 -20.89 48.1851
lradius 110.979
lwrist 10.4896
lhand -34.4145 13.6152
lfingers 7.12502
lthumb -7.57962 43.4594
rfemur -15.5158 -3.88113 3.49978
rtibia 90.7907
rfoot 4.9974 -4.99891
rtoes -10.9464
lfemur -15.1665 9.60994 -10.5739
ltibia 83.8804
lfoot 11.059 6.00924
ltoes 0.199228
1110
root 4.49773 12.3434 8.53713 72.3121 -4.77393 -0.617226
lowerback 16.5687 -0.0714142 -2.01536
upperback -4.46336 -0.978211 -3.12534
thorax -14.4376 -0.461054 -2.09627
lowerneck -33.8139 -5.90579 -6.93313
upperneck 15.0829 -7.70149 11.7108
head 11.0928 -2.38261 4.03546
rclavicle 1.98785e-015 -1.86858e-014
rhumerus 35.0245 25.4113 -52.6648
rradius 108.778
rwrist -27.8664
rhand -34.9506 5.16872
rfingers 7.12502
rthumb -8.09713 -24.6562
lclavicle 1.98785e-015 -1.86858e-014
lhumerus 31.5732 -21.2927 48.1924
lradius 111.136
lwrist 11.3678
lhand -34.7806 13.5231
lfingers 7.12502
lthumb -7.93304 43.3542
rfemur -15.5798 -3.98024 3.30178
rtibia 91.2724
rfoot 5.04761 -4.98315
rtoes -10.9853
lfemur -15.2334 9.76579 -10.4829
ltibia 84.3207
lfoot 11.1145 5.98995
ltoes 0.278622
1111
root 4.49504 12.3453 8.5465 72.3655 -4.7431 -0.615854
lowerback 16.5322 -0.0822924 -2.00767
upperback -4.47539 -0.991278 -3.13324
thorax -14.4301 -0.468279 -2.10576
lowerneck -33.8468 -5.91054 -6.92812
upperneck 15.1048 -7.70948 11.7057
head 11.1066 -2.38494 4.03165
rclavicle 8.34896e-015 -2.66371e-014
rhumerus 34.9949 25.6315 -52.8634
rradius 108.923
rwrist -28.1942
rhand -35.1842 5.18313
rfingers 7.12502
rthumb -8.32253 -24.6329
lclavicle 8.34896e-015 -2.66371e-014
lhumerus 31.562 -21.6801 48.2118
lradius 111.283
lwrist 12.2152
lhand -35.1969 13.3224
lfingers 7.12502
lthumb -8.33485 43.138
rfemur -15.6368 -4.10186 3.08571
rtibia 91.7343
rfoot 5.11911 -4.9326
rtoes -10.9365
lfemur -15.2937 9.93077 -10.3904
ltibia 84.7433
lfoot 11.1799 5.95683
ltoes 0.313175
1112
root 4.4924 12.3472 8.5559 72.4165 -4.70933 -0.613554
lowerback 16.5005 -0.0929586 -1.99559
upperback -4.48756 -1.0032 -3.14041
thorax -14.4258 -0.475329 -2.11732
lowerneck -33.8654 -5.91655 -6.93192
upperneck 15.1096 -7.71628 11.7091
head 11.1124 -2.38708 4.03236
rclavicle -6.36111e-015 -3.3197e-014
rhumerus 34.9678 25.859 -53.0499
rradius 109.07
rwrist -28.5383
rhand -35.4051 5.17908
rfingers 7.12502
rthumb -8.5357 -24.6284
lclavicle -6.36111e-015 -3.3197e-014
lhumerus 31.5538 -22.0307 48.2504
lradius 111.409
lwrist 12.9457
lhand -35.5359 13.0784
lfingers 7.12502
lthumb -8.66199 42.8807
rfemur -15.686 -4.24206 2.86171
rtibia 92.1763
rfoot 5.21236 -4.83878
rtoes -10.7868
lfemur -15.348 10.1029 -10.289
ltibia 85.1494
lfoot 11.2528 5.9112
ltoes 0.320321
1113
root 4.48989 12.3489 8.56494 72.4648 -4.67231 -0.611599
lowerback 16.4732 -0.103347 -1.97693
upperback -4.49966 -1.01344 -3.14734
thorax -14.4241 -0.482181 -2.13288
lowerneck -33.8769 -5.92342 -6.93879
upperneck 15.105 -7.72357 11.7177
head 11.1141 -2.38943 4.03524
rclavicle -7.95139e-016 -2.82274e-014
rhumerus 34.9428 26.0875 -53.2269
rradius 109.216
rwrist -28.8753
rhand -35.5961 5.15886
rfingers 7.12502
rthumb -8.72007 -24.641
lclavicle -7.95139e-016 -2.82274e-014
lhumerus 31.5505 -22.3453 48.3055
lradius 111.511
lwrist 13.5351
lhand -35.7887 12.8355
lfingers 7.12502
lthumb -8.90591 42.6276
rfemur -15.7295 -4.402 2.6284
rtibia 92.6007
rfoot 5.32703 -4.70242
rtoes -10.5262
lfemur -15.3979 10.2823 -10.1779
ltibia 85.5417
lfoot 11.3304 5.85583
ltoes 0.335253
